<?xml version="1.0" encoding="utf-8"?>
<svg version="1.1" viewBox="-504 -504 1024 1024" xmlns="http://www.w3.org/2000/svg" xmlns:bx="https://boxy-svg.com">
  <title stroke="none" stroke-opacity="1" stroke-dasharray="none" fill="none" fill-opacity="1">Arbeitsfläche 1</title>
  <title stroke="none" stroke-opacity="1" stroke-dasharray="none" fill="none" fill-opacity="1">Ebene 3</title>
  <g transform="matrix(0.909544, -0.079575, 0.079575, 0.909544, -40.975521, 8.678843)" bx:origin="0.959 1.023">
    <g transform="matrix(0.984375, -0.000002, 0.000002, 0.984375, 0.000546, 0.000448)" bx:origin="0.909 0.998">
      <g transform="matrix(0.92367, -0.064589, 0.064589, 0.92367, -1475.22583, 119.57518)" bx:origin="0.477 0.496">
        <rect x="1248" y="-512" width="768" height="1024" fill="#fffed6" stroke="none" stroke-opacity="1" stroke-dasharray="none" fill-opacity="1"/>
        <rect x="1248" y="-512" width="768" height="1024" stroke="#ccc" stroke-linecap="square" stroke-linejoin="round" stroke-width="5" stroke-opacity="1" stroke-dasharray="none" fill="none" fill-opacity="1"/>
        <line x1="1249.846" y1="416" x2="2016" y2="416" stroke="#ccc" stroke-linecap="round" stroke-linejoin="round" stroke-width="5" stroke-opacity="1" stroke-dasharray="none" fill="none" fill-opacity="1"/>
        <line x1="1249.846" y1="321" x2="2016" y2="320" stroke="#ccc" stroke-linecap="round" stroke-linejoin="round" stroke-width="5" stroke-opacity="1" stroke-dasharray="none" fill="none" fill-opacity="1"/>
        <line x1="1249.846" y1="224" x2="2016" y2="224" stroke="#ccc" stroke-linecap="round" stroke-linejoin="round" stroke-width="5" stroke-opacity="1" stroke-dasharray="none" fill="none" fill-opacity="1"/>
        <line x1="1249.846" y1="32" x2="2016" y2="32" stroke="#ccc" stroke-linecap="round" stroke-linejoin="round" stroke-width="5" stroke-opacity="1" stroke-dasharray="none" fill="none" fill-opacity="1"/>
        <line x1="1249.846" y1="128" x2="2016" y2="128" stroke="#ccc" stroke-linecap="round" stroke-linejoin="round" stroke-width="5" stroke-opacity="1" stroke-dasharray="none" fill="none" fill-opacity="1"/>
        <line x1="1249.846" y1="-64" x2="2016" y2="-64" stroke="#ccc" stroke-linecap="round" stroke-linejoin="round" stroke-width="5" stroke-opacity="1" stroke-dasharray="none" fill="none" fill-opacity="1"/>
        <rect x="1248" y="-512" width="768" height="352" stroke="none" stroke-opacity="1" stroke-dasharray="none" fill-opacity="1" style="fill: rgb(29, 45, 68);"/>
        <path d="M 1590.021 -475.949 C 1553.133 -472.722 1525.936 -440.309 1529.163 -403.421 C 1530.493 -388.216 1536.791 -374.668 1546.307 -364.209 C 1562.951 -387.263 1589.078 -403.259 1619.595 -405.929 C 1634.525 -407.236 1648.984 -405.147 1662.251 -400.434 C 1662.875 -405.195 1662.985 -410.105 1662.549 -415.091 C 1659.322 -451.979 1626.909 -479.176 1590.021 -475.949 Z M 1505.625 -437.451 C 1486.415 -435.77 1472.333 -418.86 1474.014 -399.65 C 1474.558 -393.43 1476.683 -387.691 1479.965 -382.906 C 1490.985 -390.46 1504.049 -395.411 1518.285 -396.656 C 1519.658 -396.776 1520.997 -396.852 1522.36 -396.896 C 1522.036 -398.83 1521.748 -400.771 1521.574 -402.757 C 1520.638 -413.457 1522.073 -423.83 1525.352 -433.383 C 1519.531 -436.589 1512.762 -438.075 1505.625 -437.451 Z M 1672.234 -427.916 C 1670.815 -427.792 1669.464 -427.508 1668.074 -427.298 C 1669.012 -423.54 1669.79 -419.734 1670.138 -415.755 C 1670.68 -409.562 1670.412 -403.505 1669.48 -397.633 C 1687.124 -389.792 1702.32 -377.092 1713.007 -361.002 C 1722.123 -366.81 1732.504 -370.898 1743.746 -372.646 C 1737.842 -406.569 1707.171 -430.972 1672.234 -427.916 Z M 1620.259 -398.34 C 1568.642 -393.824 1530.542 -348.422 1535.058 -296.802 C 1539.573 -245.186 1584.977 -207.084 1636.597 -211.6 C 1688.216 -216.116 1726.314 -261.524 1721.798 -313.139 C 1717.282 -364.76 1671.876 -402.856 1620.259 -398.34 Z M 1518.947 -389.087 C 1478.901 -385.583 1449.339 -350.351 1452.842 -310.306 C 1454.905 -286.732 1467.977 -266.843 1486.539 -255.141 C 1492.639 -269.936 1506.521 -280.864 1523.544 -282.354 C 1525.602 -282.534 1527.604 -282.458 1529.611 -282.358 C 1528.592 -286.832 1527.899 -291.44 1527.488 -296.139 C 1525.523 -318.605 1531.018 -340.033 1541.983 -357.9 C 1533.726 -366.561 1527.418 -377.272 1524.081 -389.263 C 1522.389 -389.232 1520.659 -389.236 1518.947 -389.087 Z M 1749.73 -365.795 C 1737.57 -364.731 1726.471 -360.618 1716.875 -354.474 C 1723.692 -342.325 1728.095 -328.572 1729.387 -313.803 C 1731.806 -286.149 1722.891 -260.063 1706.444 -240.242 C 1720.986 -226.687 1741.005 -219.155 1762.395 -221.026 C 1802.441 -224.53 1832.004 -259.761 1828.5 -299.807 C 1824.996 -339.852 1789.775 -369.299 1749.73 -365.795 Z M 1444.068 -329.436 C 1407.178 -326.209 1379.837 -293.902 1383.064 -257.013 C 1386.291 -220.123 1418.848 -192.823 1455.737 -196.05 C 1469.778 -197.279 1482.4 -202.793 1492.497 -211.127 C 1487.454 -217.637 1484.106 -225.653 1483.337 -234.437 C 1482.939 -238.996 1483.223 -243.425 1484.149 -247.675 C 1462.764 -260.452 1447.606 -282.976 1445.272 -309.644 C 1444.68 -316.42 1444.993 -323.045 1446.035 -329.472 C 1445.373 -329.433 1444.733 -329.494 1444.068 -329.436 Z M 1841.241 -306.462 C 1839.274 -306.289 1837.393 -305.899 1835.537 -305.436 C 1835.787 -303.781 1835.941 -302.16 1836.089 -300.471 C 1837.95 -279.201 1831.242 -259.16 1818.921 -243.626 C 1826.28 -236.443 1836.535 -232.389 1847.637 -233.361 C 1867.859 -235.13 1882.822 -252.834 1881.053 -273.056 C 1879.284 -293.278 1861.464 -308.231 1841.241 -306.462 Z M 1524.208 -274.765 C 1503.987 -272.996 1489.157 -255.322 1490.926 -235.101 C 1492.695 -214.88 1510.381 -199.914 1530.602 -201.683 C 1546.102 -203.039 1558.409 -213.855 1562.561 -227.927 C 1548.363 -240.064 1537.516 -256.184 1531.729 -274.642 C 1529.263 -274.931 1526.781 -274.99 1524.208 -274.765 Z" fill="white" stroke="none" stroke-opacity="1" stroke-dasharray="none" fill-opacity="1"/>
        <path d="M 1566.095 232.945 L 1541.002 362.476 L 1624.099 259.993 Z" fill="#eed084" stroke="none" stroke-opacity="1" stroke-dasharray="none" fill-opacity="1"/>
        <path d="M 1566.095 232.945 L 1541.002 362.476 L 1624.099 259.993 Z" stroke="#927b4c" stroke-linecap="round" stroke-linejoin="round" stroke-width="10" stroke-opacity="1" stroke-dasharray="none" fill="none" fill-opacity="1"/>
        <path d="M 1796 -260.086 L 1854.003 -233.039 L 1826.956 -175.035 L 1768.952 -202.083 Z" fill="#ffd6a9" stroke="none" stroke-opacity="1" stroke-dasharray="none" fill-opacity="1"/>
        <path d="M 1796 -260.086 L 1854.003 -233.039 L 1826.956 -175.035 L 1768.952 -202.083 Z" stroke="#ab4500" stroke-linecap="round" stroke-linejoin="round" stroke-width="10" stroke-opacity="1" stroke-dasharray="none" fill="none" fill-opacity="1"/>
        <path d="M 1547.275 330.093 L 1541.002 362.476 L 1561.776 336.855 Z" fill="#40404d" stroke="none" stroke-opacity="1" stroke-dasharray="none" fill-opacity="1"/>
        <path d="M 1547.275 330.093 L 1541.002 362.476 L 1561.776 336.855 Z" stroke="#40404c" stroke-linecap="square" stroke-linejoin="miter" stroke-width="10" stroke-opacity="1" stroke-dasharray="none" fill="none" fill-opacity="1"/>
        <path d="M 1768.952 -202.083 L 1826.956 -175.035 L 1624.099 259.993 L 1566.095 232.945 Z" fill="#407879" stroke="none" stroke-opacity="1" stroke-dasharray="none" fill-opacity="1"/>
        <path d="M 1768.952 -202.083 L 1826.956 -175.035 L 1624.099 259.993 L 1566.095 232.945 Z" stroke="#284c4d" stroke-linecap="round" stroke-linejoin="round" stroke-width="10" stroke-opacity="1" stroke-dasharray="none" fill="none" fill-opacity="1"/>
      </g>
    </g>
  </g>
</svg>